<?xml version="1.0" encoding="utf-8"?><svg version="1.1" id="Layer_1" xmlns="http://www.w3.org/2000/svg" xmlns:xlink="http://www.w3.org/1999/xlink" x="0px" y="0px" viewBox="0 0 122.88 122.88" style="enable-background:new 0 0 122.88 122.88" xml:space="preserve"><style type="text/css">.st0{fill-rule:evenodd;clip-rule:evenodd;}</style><g><path class="st0" d="M76.7,57.5l-7.08,4.03c-0.03,0.52-0.12,1.04-0.25,1.54c-1.11,4.16-5.39,6.63-9.55,5.52 c-0.53-0.14-1.05-0.35-1.55-0.6l-7.51,4.27l30.26,22.29L76.7,57.5L76.7,57.5L76.7,57.5z M61.44,0c33.93,0,61.44,27.51,61.44,61.44 c0,33.93-27.51,61.44-61.44,61.44C27.51,122.88,0,95.36,0,61.44C0,27.51,27.51,0,61.44,0L61.44,0z M61.44,16.07 c25.05,0,45.37,20.32,45.37,45.37c0,25.05-20.32,45.37-45.37,45.37S16.07,86.49,16.07,61.44C16.07,36.39,36.39,16.07,61.44,16.07 L61.44,16.07z M46.85,65.79l7.21-4.1c-0.07-0.87,0-1.77,0.24-2.66c1.11-4.16,5.39-6.63,9.55-5.52c0.9,0.24,1.75,0.64,2.5,1.18 l6.43-3.66L42.53,28.75L46.85,65.79L46.85,65.79L46.85,65.79z"/></g></svg>