<?xml version="1.0" encoding="UTF-8"?>
<!DOCTYPE svg PUBLIC "-//W3C//DTD SVG 1.1//EN" "http://www.w3.org/Graphics/SVG/1.1/DTD/svg11.dtd">
<!-- Creator: CorelDRAW 2018 (64 Bit) -->
<svg xmlns="http://www.w3.org/2000/svg" xml:space="preserve" width="64px" height="64px" version="1.1" style="shape-rendering:geometricPrecision; text-rendering:geometricPrecision; image-rendering:optimizeQuality; fill-rule:evenodd; clip-rule:evenodd"
viewBox="0 0 64 64"
 xmlns:xlink="http://www.w3.org/1999/xlink">
 <defs>
  <style type="text/css">
   <![CDATA[
    .fil0 {fill:#816B5F}
   ]]>
  </style>
 </defs>
 <g id="Camada_x0020_1">
  <metadata id="CorelCorpID_0Corel-Layer"/>
  <g id="_63493079024">
   <g>
    <path class="fil0" d="M39.948 29.948l-3.688 2.099c-0.015,0.271 -0.062,0.541 -0.13,0.802 -0.578,2.167 -2.807,3.453 -4.974,2.875 -0.276,-0.073 -0.546,-0.182 -0.807,-0.313l-3.911 2.224 15.76 11.61 -2.25 -19.297 0 0 0 0zm-7.948 -29.948c17.672,0 32,14.328 32,32 0,17.672 -14.328,32 -32,32 -17.672,0 -32,-14.333 -32,-32 0,-17.672 14.328,-32 32,-32l0 0zm0 8.37c13.047,0 23.63,10.583 23.63,23.63 0,13.047 -10.583,23.63 -23.63,23.63 -13.047,0 -23.63,-10.583 -23.63,-23.63 0,-13.047 10.583,-23.63 23.63,-23.63l0 0zm-7.599 25.895l3.755 -2.135c-0.036,-0.453 0,-0.922 0.125,-1.385 0.578,-2.167 2.807,-3.453 4.974,-2.875 0.469,0.125 0.912,0.333 1.302,0.614l3.349 -1.906 -15.755 -11.604 2.25 19.291 0 0 0 0z"/>
   </g>
  </g>
 </g>
</svg>
