<?xml version="1.0" encoding="UTF-8"?>
<!DOCTYPE svg PUBLIC "-//W3C//DTD SVG 1.1//EN" "http://www.w3.org/Graphics/SVG/1.1/DTD/svg11.dtd">
<!-- Creator: CorelDRAW 2018 (64 Bit) -->
<svg xmlns="http://www.w3.org/2000/svg" xml:space="preserve" width="55px" height="55px" version="1.1" style="shape-rendering:geometricPrecision; text-rendering:geometricPrecision; image-rendering:optimizeQuality; fill-rule:evenodd; clip-rule:evenodd"
viewBox="0 0 55 55"
 xmlns:xlink="http://www.w3.org/1999/xlink">
 <defs>
  <style type="text/css">
   <![CDATA[
    .fil0 {fill:#816B5F}
   ]]>
  </style>
 </defs>
 <g id="Camada_x0020_1">
  <metadata id="CorelCorpID_0Corel-Layer"/>
  <path class="fil0" d="M27.5 0c15.178,0 27.5,12.307 27.5,27.5 0,15.177 -12.306,27.5 -27.5,27.5 -15.177,0 -27.5,-12.307 -27.5,-27.5 0,-15.177 12.307,-27.5 27.5,-27.5zm3.069 18.427l5.13 0 0 -6.154 -5.13 0c-3.959,0 -7.176,3.217 -7.176,7.177l0 3.068 -4.108 0 0 6.153 4.108 0 0 16.398 6.153 0 0 -16.398 5.131 0 1.022 -6.153 -6.153 0 0 -3.068c0,-0.561 0.462,-1.023 1.023,-1.023z"/>
 </g>
</svg>
