<?xml version="1.0" encoding="UTF-8"?>
<!DOCTYPE svg PUBLIC "-//W3C//DTD SVG 1.1//EN" "http://www.w3.org/Graphics/SVG/1.1/DTD/svg11.dtd">
<!-- Creator: CorelDRAW 2018 (64 Bit) -->
<svg xmlns="http://www.w3.org/2000/svg" xml:space="preserve" width="55px" height="55px" version="1.1" style="shape-rendering:geometricPrecision; text-rendering:geometricPrecision; image-rendering:optimizeQuality; fill-rule:evenodd; clip-rule:evenodd"
viewBox="0 0 55 55"
 xmlns:xlink="http://www.w3.org/1999/xlink">
 <defs>
  <style type="text/css">
   <![CDATA[
    .fil0 {fill:#816B5F}
   ]]>
  </style>
 </defs>
 <g id="Camada_x0020_1">
  <metadata id="CorelCorpID_0Corel-Layer"/>
  <path class="fil0" d="M27.5 0c15.178,0 27.5,12.307 27.5,27.5 0,15.177 -12.306,27.5 -27.5,27.5 -15.177,0 -27.5,-12.307 -27.5,-27.5 0,-15.177 12.307,-27.5 27.5,-27.5zm-6.434 12.405l12.868 0c4.834,0 8.776,3.91 8.776,8.661l0 12.835c0,4.767 -3.942,8.661 -8.776,8.661l-12.868 0c-4.833,0 -8.776,-3.894 -8.776,-8.661l0 -12.835c0,-4.767 3.959,-8.66 8.776,-8.66l0 -0.001zm6.352 6.946c4.701,0 8.512,3.81 8.512,8.512 0,4.702 -3.811,8.512 -8.512,8.512 -4.702,0 -8.512,-3.81 -8.512,-8.512 0,-4.702 3.81,-8.512 8.512,-8.512zm0 2.87c3.101,0 5.625,2.524 5.625,5.626 0,3.101 -2.524,5.625 -5.625,5.625 -3.118,0 -5.625,-2.524 -5.625,-5.625 0,-3.102 2.523,-5.626 5.625,-5.626zm8.232 -4.058c0.759,0 1.385,0.61 1.385,1.386 0,0.759 -0.61,1.385 -1.385,1.385 -0.759,0 -1.386,-0.61 -1.386,-1.385 0,-0.759 0.611,-1.386 1.386,-1.386zm-13.528 -3.3l10.756 0c4.042,0 7.341,3.283 7.341,7.309l0 10.822c0,4.025 -3.299,7.308 -7.341,7.308l-10.756 0c-4.041,0 -7.341,-3.283 -7.341,-7.308l0 -10.822c0,-4.026 3.3,-7.309 7.341,-7.309l0 0z"/>
 </g>
</svg>
