<?xml version="1.0" encoding="UTF-8"?>
<!DOCTYPE svg PUBLIC "-//W3C//DTD SVG 1.1//EN" "http://www.w3.org/Graphics/SVG/1.1/DTD/svg11.dtd">
<!-- Creator: CorelDRAW 2018 (64 Bit) -->
<svg xmlns="http://www.w3.org/2000/svg" xml:space="preserve" width="64px" height="62px" version="1.1" style="shape-rendering:geometricPrecision; text-rendering:geometricPrecision; image-rendering:optimizeQuality; fill-rule:evenodd; clip-rule:evenodd"
viewBox="0 0 64 62"
 xmlns:xlink="http://www.w3.org/1999/xlink">
 <defs>
  <style type="text/css">
   <![CDATA[
    .fil0 {fill:#816B5F}
   ]]>
  </style>
 </defs>
 <g id="Camada_x0020_1">
  <metadata id="CorelCorpID_0Corel-Layer"/>
  <g id="_63580188496">
   <g>
    <path class="fil0" d="M23.054 59.881l17.825 0 -9.269 -19.674 -8.556 19.674 0 0zm7.936 -59.028c0,-0.551 0.448,-1.005 1.005,-1.005 0.552,0 1.005,0.448 1.005,1.005l0 9.416 1.953 3.614 5.062 -8.765c0.275,-0.479 0.885,-0.645 1.364,-0.369 0.479,0.276 0.646,0.885 0.37,1.364l-5.677 9.837 23.84 44.191 3.083 0c0.552,0 1.005,0.448 1.005,1.005 0,0.552 -0.447,1.005 -1.005,1.005l-61.99 0c-0.552,0 -1.005,-0.447 -1.005,-1.005 0,-0.552 0.448,-1.005 1.005,-1.005l3.083 0 23.804 -44.259 -5.646 -9.769c-0.275,-0.479 -0.109,-1.088 0.37,-1.364 0.479,-0.276 1.089,-0.11 1.365,0.369l5.02 8.692 1.994 -3.708 0 -9.249 -0.005 0z"/>
   </g>
  </g>
 </g>
</svg>
