<?xml version="1.0" encoding="UTF-8"?>
<!DOCTYPE svg PUBLIC "-//W3C//DTD SVG 1.1//EN" "http://www.w3.org/Graphics/SVG/1.1/DTD/svg11.dtd">
<!-- Creator: CorelDRAW 2018 (64 Bit) -->
<svg xmlns="http://www.w3.org/2000/svg" xml:space="preserve" width="55px" height="55px" version="1.1" style="shape-rendering:geometricPrecision; text-rendering:geometricPrecision; image-rendering:optimizeQuality; fill-rule:evenodd; clip-rule:evenodd"
viewBox="0 0 55 55"
 xmlns:xlink="http://www.w3.org/1999/xlink">
 <defs>
  <style type="text/css">
   <![CDATA[
    .fil0 {fill:#816B5F}
   ]]>
  </style>
 </defs>
 <g id="Camada_x0020_1">
  <metadata id="CorelCorpID_0Corel-Layer"/>
  <path class="fil0" d="M27.5 0c15.177,0 27.5,12.307 27.5,27.5 0,15.177 -12.307,27.5 -27.5,27.5 -15.178,0 -27.5,-12.307 -27.5,-27.5 0,-15.177 12.306,-27.5 27.5,-27.5zm1.864 25.636l0 6.797c0,1.732 -0.017,2.721 0.165,3.216 0.181,0.495 0.643,0.99 1.138,1.287 0.66,0.396 1.402,0.594 2.26,0.594 1.501,0 2.392,-0.198 3.877,-1.171l0 4.47c-1.271,0.594 -2.376,0.941 -3.398,1.188 -1.023,0.248 -2.145,0.363 -3.333,0.363 -1.353,0 -2.161,-0.165 -3.2,-0.511 -1.039,-0.346 -1.93,-0.842 -2.673,-1.469 -0.742,-0.643 -1.254,-1.319 -1.534,-2.029 -0.28,-0.709 -0.429,-1.748 -0.429,-3.118l0 -10.426 -3.992 0 0 -4.206c1.171,-0.38 2.474,-0.924 3.299,-1.633 0.842,-0.71 1.501,-1.568 2.013,-2.558 0.511,-0.989 0.858,-2.259 1.039,-3.793l4.784 0 0 7.423 7.424 0 0 5.576 -7.424 0 -0.016 0z"/>
 </g>
</svg>
