<svg xmlns="http://www.w3.org/2000/svg" viewBox="0 0 3333 3333" shape-rendering="geometricPrecision" text-rendering="geometricPrecision" image-rendering="optimizeQuality" fill-rule="evenodd" clip-rule="evenodd"><path d="M1667 0c920 0 1667 746 1667 1667 0 920-746 1667-1667 1667C747 3334 0 2588 0 1667 0 747 746 0 1667 0zm113 1554v412c0 105-1 165 10 195s39 60 69 78c40 24 85 36 137 36 91 0 145-12 235-71v271c-77 36-144 57-206 72s-130 22-202 22c-82 0-131-10-194-31s-117-51-162-89c-45-39-76-80-93-123s-26-106-26-189v-632h-242v-255c71-23 150-56 200-99 51-43 91-95 122-155s52-137 63-230h290v450h450v338h-450z" fill="#050505"/></svg>