<?xml version="1.0" encoding="UTF-8"?>
<!DOCTYPE svg PUBLIC "-//W3C//DTD SVG 1.1//EN" "http://www.w3.org/Graphics/SVG/1.1/DTD/svg11.dtd">
<!-- Creator: CorelDRAW 2018 (64 Bit) -->
<svg xmlns="http://www.w3.org/2000/svg" xml:space="preserve" width="55px" height="55px" version="1.1" style="shape-rendering:geometricPrecision; text-rendering:geometricPrecision; image-rendering:optimizeQuality; fill-rule:evenodd; clip-rule:evenodd"
viewBox="0 0 55 55"
 xmlns:xlink="http://www.w3.org/1999/xlink">
 <defs>
  <style type="text/css">
   <![CDATA[
    .fil0 {fill:#816B5F}
   ]]>
  </style>
 </defs>
 <g id="Camada_x0020_1">
  <metadata id="CorelCorpID_0Corel-Layer"/>
  <path class="fil0" d="M27.5 0.062c15.143,0 27.438,12.279 27.438,27.438 0,15.143 -12.279,27.438 -27.438,27.438 -15.143,0 -27.438,-12.279 -27.438,-27.438 0,-15.143 12.279,-27.438 27.438,-27.438zm14.814 18.237c-1.087,0.494 -2.255,0.807 -3.49,0.955 1.251,-0.758 2.222,-1.943 2.667,-3.358 -1.169,0.691 -2.486,1.202 -3.852,1.481 -1.119,-1.185 -2.683,-1.909 -4.444,-1.909 -3.358,0 -6.074,2.716 -6.074,6.074 0,0.477 0.05,0.938 0.148,1.382 -5.052,-0.263 -9.53,-2.666 -12.525,-6.353 -0.543,0.922 -0.823,1.975 -0.823,3.061 0,2.107 1.069,3.967 2.699,5.053 -1.004,-0.033 -1.926,-0.312 -2.749,-0.757l0 0.082c0,2.947 2.091,5.399 4.873,5.959 -0.511,0.132 -1.054,0.214 -1.597,0.214 -0.395,0 -0.774,-0.033 -1.152,-0.115 0.773,2.419 3.012,4.164 5.678,4.23 -2.09,1.629 -4.691,2.601 -7.555,2.601 -0.493,0 -0.971,-0.033 -1.448,-0.083 2.699,1.729 5.893,2.732 9.316,2.732 11.176,0 17.299,-9.266 17.299,-17.299 0,-0.263 0,-0.526 -0.016,-0.79 1.185,-0.856 2.222,-1.926 3.028,-3.144l0.017 -0.016z"/>
 </g>
</svg>
