<?xml version="1.0" encoding="UTF-8"?>
<!DOCTYPE svg PUBLIC "-//W3C//DTD SVG 1.1//EN" "http://www.w3.org/Graphics/SVG/1.1/DTD/svg11.dtd">
<!-- Creator: CorelDRAW 2018 (64 Bit) -->
<svg xmlns="http://www.w3.org/2000/svg" xml:space="preserve" width="52px" height="64px" version="1.1" style="shape-rendering:geometricPrecision; text-rendering:geometricPrecision; image-rendering:optimizeQuality; fill-rule:evenodd; clip-rule:evenodd"
viewBox="0 0 52 64"
 xmlns:xlink="http://www.w3.org/1999/xlink">
 <defs>
  <style type="text/css">
   <![CDATA[
    .fil0 {fill:#816B5F}
   ]]>
  </style>
 </defs>
 <g id="Camada_x0020_1">
  <metadata id="CorelCorpID_0Corel-Layer"/>
  <g id="_63577151312">
   <path class="fil0" d="M26.084 62.521c1.51,0.354 3.119,0.552 4.791,0.661 1.396,0.089 2.729,0.188 4.125,0.318 6.457,0.594 12.29,0.719 14.914,-1.51 0.688,-0.474 1.104,-1.089 1.308,-1.807 0.265,-0.933 0.833,-2.037 0.552,-3.24 -0.927,-5.832 -3.213,-7.296 -6.859,-11.837 -1.203,-1.5 -2.359,-3.088 -3.328,-5.025 -1.588,-3.177 -1.281,-4.984 -2.229,-8.067 -0.109,-0.36 -0.229,-0.714 -0.359,-1.063 -0.927,-2.525 -1.13,-3.317 -3.734,-4.265 -1.646,-0.599 -3.77,-0.635 -4.989,-1.828 -1.041,-1.015 -1.344,-2.401 -1.359,-3.932 1.557,-1.229 2.854,-3.739 3.541,-5.447 0.005,-0.01 0.016,-0.026 0.021,-0.036l0 0c0.432,-0.995 0.526,-1.677 0.307,-2.125 -0.041,-0.089 -0.094,-0.162 -0.156,-0.229 0.224,-0.443 0.359,-0.808 0.391,-1.021 0.135,-0.385 0.197,-0.76 0.203,-1.135 0.02,-1.61 -0.953,-4.219 -2.052,-5.406 -0.339,-0.364 -0.708,-0.672 -1.109,-0.932 -2.703,-1.755 -7.567,-1.578 -10.02,0.458 -1.625,1.354 -2.151,2.911 -2.224,4.859 -0.047,1.145 -0.068,2.036 0.469,3.161 -0.073,0.089 -0.131,0.182 -0.177,0.286 -0.094,0.209 -0.141,0.448 -0.13,0.714 0.015,0.573 0.281,1.276 0.791,2.052 0.651,1.609 1.802,3.63 3.156,4.749 -0.031,1.953 -0.526,3.557 -1.869,4.526 -1.792,1.286 -3.958,0.667 -6.13,2.348 -1.76,1.365 -2.099,3.568 -2.714,5.578l-2.27 7.473c-1.531,4.401 -7.343,9.656 -8.588,15.947 -0.448,0.734 -0.031,1.489 -0.026,2.26 0.021,1.828 1.016,2.697 2.521,3.499 3.947,2.099 9.879,1.625 16.113,0.766 0.911,0.083 1.869,0.052 2.864,-0.068 0.828,-0.104 1.677,-0.265 2.541,-0.484 0.787,-0.203 0.922,-0.386 1.714,-0.198l0 0zm-10.749 -25.024l0.667 -2.312c0.01,3.182 0.828,4.666 1.385,6.557 0.208,0.703 0.38,1.458 0.463,2.375 0.245,2.728 -0.167,4.932 -0.994,7.52 -0.563,1.755 -1.12,3.286 -0.886,3.89 -3.728,-1.24 -7.265,-1.542 -10.665,-1.208 5.52,-5.729 7.9,-9.421 10.03,-16.822l0 0zm20.404 0l-0.667 -2.312c-0.01,3.182 -0.828,4.666 -1.385,6.557 -0.208,0.703 -0.38,1.458 -0.463,2.375 -0.245,2.728 0.166,4.932 0.994,7.52 0.563,1.755 0.948,3.593 0.714,4.197 3.728,-1.239 8.738,-1.713 12.139,-1.38 -5.036,-5.729 -8.947,-9.556 -11.332,-16.957l0 0zm-12.577 -36.834c1.615,-1.031 3.448,-0.802 4.963,0.291 0.401,0.287 0.74,0.641 1.011,1.068 0.229,0.365 0.63,1.109 -0.12,1.224 -0.297,0.047 -0.813,-0.333 -1.214,-0.458 -0.515,-0.157 -1.041,-0.256 -1.562,-0.307 -0.979,-0.099 -1.937,-0.021 -2.766,0.192 -0.447,0.115 -0.885,0.26 -1.301,0.443 -0.193,0.083 -0.589,0.333 -0.698,0.015 -0.255,-0.739 1.109,-2.093 1.687,-2.468l0 0z"/>
  </g>
 </g>
</svg>
